HIERARCHY
ROOT Hips
{
	OFFSET -0.001795 -0.223333 0.028219
	CHANNELS 6 Xposition Yposition Zposition Zrotation Yrotation Xrotation 
	JOINT LeftUpLeg
	{
		OFFSET 0.069520 -0.091406 -0.006815
		CHANNELS 3 Zrotation Yrotation Xrotation
		JOINT LeftLeg
		{
			OFFSET 0.034277 -0.375199 -0.004496
			CHANNELS 3 Zrotation Yrotation Xrotation
			JOINT LeftFoot
			{
				OFFSET -0.013596 -0.397961 -0.043693
				CHANNELS 3 Zrotation Yrotation Xrotation
				JOINT LeftToe
				{
					OFFSET 0.026358 -0.055791 0.119288
					CHANNELS 3 Zrotation Yrotation Xrotation
					End Site
					{
						OFFSET 0.000000 0.000000 0.000000
					}
				}
			}
		}
	}
	JOINT RightUpLeg
	{
		OFFSET -0.067670 -0.090522 -0.004320
		CHANNELS 3 Zrotation Yrotation Xrotation
		JOINT RightLeg
		{
			OFFSET -0.038290 -0.382569 -0.008850
			CHANNELS 3 Zrotation Yrotation Xrotation
			JOINT RightFoot
			{
				OFFSET 0.015774 -0.398415 -0.042312
				CHANNELS 3 Zrotation Yrotation Xrotation
				JOINT RightToe
				{
					OFFSET -0.025372 -0.048144 0.123348
					CHANNELS 3 Zrotation Yrotation Xrotation
					End Site
					{
						OFFSET 0.000000 0.000000 0.000000
					}
				}
			}
		}
	}
	JOINT Spine
	{
		OFFSET -0.002533 0.108963 -0.026696
		CHANNELS 3 Zrotation Yrotation Xrotation
		JOINT Spine1
		{
			OFFSET 0.005487 0.135180 0.001092
			CHANNELS 3 Zrotation Yrotation Xrotation
			JOINT Spine2
			{
				OFFSET 0.001457 0.052922 0.025425
				CHANNELS 3 Zrotation Yrotation Xrotation
				JOINT Neck
				{
					OFFSET -0.002778 0.213870 -0.042857
					CHANNELS 3 Zrotation Yrotation Xrotation
					JOINT Head
					{
						OFFSET 0.005152 0.064970 0.051349
						CHANNELS 3 Zrotation Yrotation Xrotation
						End Site
						{
							OFFSET 0.000000 0.000000 0.000000
						}
					}
				}
				JOINT LeftShoulder
				{
					OFFSET 0.078845 0.121749 -0.034090
					CHANNELS 3 Zrotation Yrotation Xrotation
					JOINT LeftArm
					{
						OFFSET 0.090977 0.030469 -0.008868
						CHANNELS 3 Zrotation Yrotation Xrotation
						JOINT LeftForeArm
						{
							OFFSET 0.259612 -0.012772 -0.027456
							CHANNELS 3 Zrotation Yrotation Xrotation
							JOINT LeftHand
							{
								OFFSET 0.249234 0.008986 -0.001171
								CHANNELS 3 Zrotation Yrotation Xrotation
								End Site
								{
									OFFSET 0.000000 0.000000 0.000000
								}
							}
						}
					}
				}
				JOINT RightShoulder
				{
					OFFSET -0.081759 0.118833 -0.038615
					CHANNELS 3 Zrotation Yrotation Xrotation
					JOINT RightArm
					{
						OFFSET -0.096012 0.032551 -0.009143
						CHANNELS 3 Zrotation Yrotation Xrotation
						JOINT RightForeArm
						{
							OFFSET -0.253742 -0.013329 -0.021401
							CHANNELS 3 Zrotation Yrotation Xrotation
							JOINT RightHand
							{
								OFFSET -0.255298 0.007772 -0.005559
								CHANNELS 3 Zrotation Yrotation Xrotation
								End Site
								{
									OFFSET 0.000000 0.000000 0.000000
								}
							}
						}
					}
				}
			}
		}
	}
}
MOTION
Frames: 13
Frame Time: 0.050000
0.043450 0.946069 -0.061403 -10.305902 -36.827805 16.670984 16.569204 3.568624 -16.497276 -4.660628 1.872570 11.240209 2.366329 4.493619 6.178994 0.000000 0.000000 0.000000 -2.152602 1.308893 -11.885204 0.356331 0.518414 7.445726 -4.105491 -15.871641 12.304798 0.000000 0.000000 0.000000 -6.572670 0.645870 1.411984 -10.659183 2.549867 -24.231232 -12.399121 4.240140 24.224678 11.386301 -5.769484 -32.769985 0.000000 0.000000 0.000000 -10.891810 7.993139 -2.397742 -32.826797 -7.257069 -3.738711 18.535744 -32.427795 -1.810887 0.000000 0.000000 0.000000 9.500296 -19.590000 -11.879897 39.431828 -1.885907 -5.714907 -38.191402 63.296391 -27.056427 0.000000 0.000000 0.000000
0.047514 0.944954 -0.061051 -8.797337 -36.422688 16.032537 14.714536 3.104680 -17.461140 -4.262400 1.786138 11.671892 1.622440 3.172528 5.171069 0.000000 0.000000 0.000000 -3.700779 1.370394 -11.984818 0.773426 0.433528 6.938042 -4.392338 -16.105169 11.962264 0.000000 0.000000 0.000000 -5.336470 0.487223 1.649682 -10.638664 2.563139 -24.918144 -10.486713 3.639919 24.912128 11.851902 -5.721813 -34.471554 0.000000 0.000000 0.000000 -11.599138 7.814734 -1.643321 -35.669476 -7.283321 -4.008791 15.254038 -36.187771 -0.943436 0.000000 0.000000 0.000000 12.828757 -19.135612 -13.473489 42.097889 -3.819845 -6.563846 -25.922659 62.200439 -18.457754 0.000000 0.000000 0.000000
0.050189 0.943624 -0.061683 -6.970927 -36.156494 14.731828 13.147610 2.640486 -17.683071 -4.516027 1.879762 11.872835 1.205237 2.428095 4.931508 0.000000 0.000000 0.000000 -5.425260 1.414266 -11.775041 0.998505 0.374596 6.501229 -4.950956 -16.832067 11.883400 0.000000 0.000000 0.000000 -4.325440 0.357265 1.615156 -10.087549 2.446627 -24.708551 -9.166069 3.584638 25.447392 10.818429 -5.204517 -35.325165 0.000000 0.000000 0.000000 -11.863954 7.235995 -2.262110 -38.928608 -7.638755 -4.122272 12.729783 -40.554489 -0.026518 0.000000 0.000000 0.000000 16.880320 -17.311008 -14.699067 43.165077 -6.089484 -7.160900 -16.842403 59.322281 -11.796053 0.000000 0.000000 0.000000
0.051283 0.942543 -0.062247 -5.144933 -36.237877 13.661625 11.366996 2.120209 -17.698145 -4.355075 1.783531 11.482932 1.322105 2.643211 4.485765 0.000000 0.000000 0.000000 -7.163778 1.485459 -11.551980 1.673894 0.279205 5.887862 -5.540441 -17.451727 11.419029 0.000000 0.000000 0.000000 -3.077073 0.217588 1.995341 -9.522536 2.330971 -25.894802 -6.769970 3.400560 26.185051 11.202650 -5.332757 -35.924126 0.000000 0.000000 0.000000 -11.670160 6.974148 -2.001951 -41.459316 -7.168613 -4.356890 10.551639 -45.527203 1.176565 0.000000 0.000000 0.000000 18.635023 -16.721430 -15.409598 44.066071 -7.197269 -7.578814 -11.667442 55.410995 -8.025108 0.000000 0.000000 0.000000
0.050798 0.941403 -0.062489 -2.603146 -36.695625 11.423173 9.514654 1.532490 -16.722532 -4.522708 1.804311 11.032406 1.145515 2.324768 4.572982 0.000000 0.000000 0.000000 -9.277103 1.579633 -10.916755 1.565382 0.306314 6.224952 -6.328498 -18.433542 11.243413 0.000000 0.000000 0.000000 -1.720109 0.077597 2.053427 -8.897549 2.185235 -25.778824 -5.238190 3.661304 26.453018 9.269372 -4.732734 -35.476463 0.000000 0.000000 0.000000 -12.984935 7.878211 -1.713509 -41.119442 -6.863607 -4.627915 9.639888 -51.917912 2.143336 0.000000 0.000000 0.000000 20.373514 -15.413060 -15.643866 44.197411 -8.911390 -8.020310 -7.959824 53.825722 -5.798016 0.000000 0.000000 0.000000
0.049114 0.940600 -0.062659 -0.740431 -38.098469 9.947116 7.831607 1.073708 -15.541427 -4.168410 1.584420 9.581721 1.770126 3.447761 4.704830 0.000000 0.000000 0.000000 -10.613356 1.694663 -10.461003 1.764986 0.282195 5.940163 -6.545830 -18.411270 10.562617 0.000000 0.000000 0.000000 -0.205564 -0.044298 2.046818 -8.014994 2.017521 -27.290253 -3.175549 4.694029 27.826530 10.142562 -5.216026 -35.618240 0.000000 0.000000 0.000000 -13.846363 8.074667 -1.084328 -40.963619 -6.033609 -5.173124 12.477135 -57.791359 1.450983 0.000000 0.000000 0.000000 20.604597 -15.457560 -15.823507 43.681892 -9.569637 -8.199984 -5.576769 52.107571 -4.387126 0.000000 0.000000 0.000000
0.046500 0.940407 -0.063906 0.823652 -39.218719 8.557760 6.681679 0.700629 -13.604125 -3.834523 1.274297 7.168272 2.052878 3.848899 6.052502 0.000000 0.000000 0.000000 -12.268325 1.867317 -9.754298 1.977010 0.223163 5.101179 -6.670716 -18.497324 10.622959 0.000000 0.000000 0.000000 1.599953 -0.143110 1.790433 -6.860805 1.767019 -27.455723 -2.553160 5.532333 27.974857 9.795527 -5.105644 -35.791702 0.000000 0.000000 0.000000 -13.638985 9.553386 -1.702579 -40.151588 -5.194280 -5.446062 16.409288 -63.712875 -0.169296 0.000000 0.000000 0.000000 20.225241 -15.006990 -15.369527 42.790184 -9.730578 -8.073853 -4.533711 51.103004 -3.805421 0.000000 0.000000 0.000000
0.043702 0.940788 -0.066778 1.973234 -40.633297 7.500727 5.796062 0.473983 -11.968179 -3.278989 0.971150 4.897598 2.687485 4.811471 7.401233 0.000000 0.000000 0.000000 -13.245514 2.031439 -9.981751 2.131879 0.236550 5.275345 -6.572226 -18.443197 10.951337 0.000000 0.000000 0.000000 3.691507 -0.241325 2.093537 -5.758481 1.607476 -28.527172 -1.254860 6.323378 28.737827 11.304952 -5.765146 -36.237133 0.000000 0.000000 0.000000 -12.006210 10.282956 -3.493356 -38.645378 -5.714885 -5.250130 27.528896 -66.936699 -6.574766 0.000000 0.000000 0.000000 18.626160 -15.578596 -14.907385 40.547791 -8.765280 -7.350265 -5.002834 50.487209 -4.128481 0.000000 0.000000 0.000000
0.041592 0.942207 -0.071374 2.844898 -42.057076 6.637072 5.054799 0.317431 -10.795066 -2.681802 0.723426 2.993795 3.388596 5.664081 9.889619 0.000000 0.000000 0.000000 -13.991378 2.173368 -10.001128 2.202020 0.206032 4.578511 -6.248262 -18.086706 11.317954 0.000000 0.000000 0.000000 5.879678 -0.328382 2.748816 -3.973614 1.241413 -28.358179 -1.080325 7.126199 28.073931 10.443663 -5.606646 -35.318161 0.000000 0.000000 0.000000 -10.300376 9.963383 -3.777048 -34.231762 -8.015315 -4.307392 42.321133 -65.658066 -15.803584 0.000000 0.000000 0.000000 17.582689 -15.233257 -14.198693 37.355145 -7.419257 -6.165003 -9.688447 51.805141 -6.727275 0.000000 0.000000 0.000000
0.040419 0.943630 -0.076998 3.719667 -42.943935 6.147540 4.462233 0.190867 -9.757162 -1.949147 0.486194 1.185415 3.721447 5.897322 11.942121 0.000000 0.000000 0.000000 -13.950092 2.202131 -10.688771 1.777370 0.206728 4.140109 -6.041318 -17.619238 10.763220 0.000000 0.000000 0.000000 7.950716 -0.403293 3.603712 -3.018817 1.112055 -28.792883 -0.055864 6.866100 27.371262 9.933749 -5.644628 -34.247276 0.000000 0.000000 0.000000 -7.561867 7.996093 -2.796340 -29.513180 -10.410582 -3.394723 54.855728 -59.277359 -20.727390 0.000000 0.000000 0.000000 15.885976 -15.491542 -13.558544 34.082085 -6.332543 -5.142642 -13.912727 52.518410 -9.279465 0.000000 0.000000 0.000000
0.040448 0.944616 -0.082756 4.802791 -43.723267 5.605841 3.733750 0.074581 -9.912774 -1.645115 0.413127 0.733044 3.758175 5.727435 13.076548 0.000000 0.000000 0.000000 -14.868282 2.370507 -11.250526 1.851758 0.192504 3.809098 -5.493183 -17.054399 11.209502 0.000000 0.000000 0.000000 9.348226 -0.465912 4.484051 -1.623157 0.868302 -28.745110 0.147465 6.609195 26.684462 9.215859 -5.520644 -33.320198 0.000000 0.000000 0.000000 -3.940808 5.607048 -1.814316 -23.994530 -12.629339 -2.486518 60.565121 -49.682598 -19.006849 0.000000 0.000000 0.000000 15.286206 -14.880313 -13.067586 29.993156 -5.369126 -4.022892 -19.612154 51.582825 -12.111391 0.000000 0.000000 0.000000
0.041573 0.945839 -0.087710 5.543926 -43.564892 4.765917 3.182771 -0.033891 -9.444381 -1.138744 0.304062 0.607671 3.524329 5.320694 13.427500 0.000000 0.000000 0.000000 -14.793395 2.341978 -11.509315 1.143946 0.224157 3.992639 -5.316270 -16.526581 10.490901 0.000000 0.000000 0.000000 10.404578 -0.559915 5.814039 -0.806062 0.681026 -28.491001 1.468408 4.781029 25.608755 8.085889 -5.417287 -31.665581 0.000000 0.000000 0.000000 0.146669 3.463086 -1.334091 -20.005875 -14.872366 -1.755188 61.519913 -40.346649 -14.016238 0.000000 0.000000 0.000000 14.322490 -13.992612 -12.397268 27.108837 -4.612956 -3.220800 -25.470776 49.179371 -14.634999 0.000000 0.000000 0.000000
0.043582 0.946585 -0.090758 6.383142 -43.805866 4.058319 2.326638 -0.173696 -9.619167 -0.905123 0.254203 0.456504 4.313465 6.425131 14.576272 0.000000 0.000000 0.000000 -15.286940 2.424460 -11.881240 0.541220 0.287781 4.608550 -4.507221 -15.472740 10.680333 0.000000 0.000000 0.000000 10.806934 -0.630535 6.851085 0.671695 0.314259 -27.716021 2.856880 3.770014 24.862823 7.351157 -5.262688 -30.591625 0.000000 0.000000 0.000000 5.653038 1.284742 -2.790379 -16.129757 -16.443497 -1.174045 60.277431 -32.087032 -8.946789 0.000000 0.000000 0.000000 13.384889 -12.565393 -11.386792 24.273228 -4.482549 -2.682452 -30.773638 45.548553 -16.068501 0.000000 0.000000 0.000000
